<svg xmlns="http://www.w3.org/2000/svg" viewBox="0 0 600 450" width="600" height="450">
  <defs>
    <radialGradient id="bgParchmentPie" cx="50%" cy="40%" r="70%">
      <stop offset="0%" stop-color="#ffffff"/>
      <stop offset="65%" stop-color="#fbf8f2"/>
      <stop offset="100%" stop-color="#f2e8d8"/>
    </radialGradient>
    <radialGradient id="crustLattice" cx="50%" cy="35%" r="65%">
      <stop offset="0%" stop-color="#fce5b6"/>
      <stop offset="65%" stop-color="#dca556"/>
      <stop offset="100%" stop-color="#9c5819"/>
    </radialGradient>
  </defs>
  <rect width="600" height="450" fill="url(#bgParchmentPie)"/>
  <rect x="18" y="18" width="564" height="414" fill="none" stroke="#331d10" stroke-width="1.4" opacity="0.5"/>
  <rect x="25" y="25" width="550" height="400" fill="none" stroke="#b85428" stroke-width="0.7" stroke-dasharray="3 3" opacity="0.5"/>

  <ellipse cx="300" cy="365" rx="210" ry="30" fill="#331d10" opacity="0.08"/>

  <g transform="translate(300, 260)">
    <ellipse cx="0" cy="35" rx="195" ry="65" fill="#eedec7" stroke="#331d10" stroke-width="2.5"/>
    <ellipse cx="0" cy="15" rx="185" ry="60" fill="url(#crustLattice)" stroke="#783c0c" stroke-width="2"/>
    <path d="M -140 10 L 140 10" stroke="#fce5b6" stroke-width="18" stroke-linecap="round"/>
    <path d="M -120 -15 L 120 -15" stroke="#fce5b6" stroke-width="18" stroke-linecap="round"/>
    <path d="M -120 35 L 120 35" stroke="#fce5b6" stroke-width="18" stroke-linecap="round"/>
    <path d="M -60 -35 L -60 65" stroke="#dca556" stroke-width="18" stroke-linecap="round"/>
    <path d="M 0 -45 L 0 75" stroke="#dca556" stroke-width="18" stroke-linecap="round"/>
    <path d="M 60 -35 L 60 65" stroke="#dca556" stroke-width="18" stroke-linecap="round"/>
    <ellipse cx="0" cy="15" rx="185" ry="60" fill="none" stroke="#9c5819" stroke-width="8" stroke-dasharray="12 12"/>
    <path d="M -20 -60 Q 20 -80 40 -50 Q 20 -40 -20 -60 Z" fill="#c43725" stroke="#331d10" stroke-width="1.5"/>
  </g>

  <rect x="170" y="38" width="260" height="32" rx="16" fill="#ffffff" stroke="#331d10" stroke-width="1.2"/>
  <text x="300" y="59" font-family="'Playfair Display', Georgia, serif" font-size="13" font-weight="600" fill="#331d10" text-anchor="middle" letter-spacing="2">TARTE AUX POMMES À L'ANCIENNE</text>
</svg>